<?xml version="1.0" encoding="UTF-8"?>
<svg xmlns="http://www.w3.org/2000/svg" xmlns:xlink="http://www.w3.org/1999/xlink" width="50pt" height="50pt" viewBox="0 0 50 50" version="1.1">
<g id="surface19635221">
<path style=" stroke:none;fill-rule:nonzero;fill:rgb(94.509804%,73.725492%,9.803922%);fill-opacity:1;" d="M 39 6.5 C 39 6.777344 38.777344 7 38.5 7 C 38.222656 7 38 6.777344 38 6.5 C 38 6.222656 38.222656 6 38.5 6 C 38.777344 6 39 6.222656 39 6.5 Z M 39 6.5 "/>
<path style=" stroke:none;fill-rule:nonzero;fill:rgb(54.509807%,85.882354%,69.411767%);fill-opacity:1;" d="M 43.5 25 C 43.5 35.21875 35.21875 43.5 25 43.5 C 14.78125 43.5 6.5 35.21875 6.5 25 C 6.5 14.78125 14.78125 6.5 25 6.5 C 35.21875 6.5 43.5 14.78125 43.5 25 Z M 43.5 25 "/>
<path style=" stroke:none;fill-rule:nonzero;fill:rgb(94.509804%,73.725492%,9.803922%);fill-opacity:1;" d="M 43.5 7.5 C 43.5 8.605469 42.605469 9.5 41.5 9.5 C 40.394531 9.5 39.5 8.605469 39.5 7.5 C 39.5 6.394531 40.394531 5.5 41.5 5.5 C 42.605469 5.5 43.5 6.394531 43.5 7.5 Z M 43.5 7.5 "/>
<path style=" stroke:none;fill-rule:nonzero;fill:rgb(62.352943%,50.196081%,40.000001%);fill-opacity:1;" d="M 44.5 12 C 44.5 12.550781 44.050781 13 43.5 13 C 42.949219 13 42.5 12.550781 42.5 12 C 42.5 11.449219 42.949219 11 43.5 11 C 44.050781 11 44.5 11.449219 44.5 12 Z M 44.5 12 "/>
<path style=" stroke:none;fill-rule:nonzero;fill:rgb(98.431373%,80.392158%,34.901962%);fill-opacity:1;" d="M 41.5 38 C 41.5 38.550781 41.050781 39 40.5 39 C 39.949219 39 39.5 38.550781 39.5 38 C 39.5 37.449219 39.949219 37 40.5 37 C 41.050781 37 41.5 37.449219 41.5 38 Z M 41.5 38 "/>
<path style=" stroke:none;fill-rule:nonzero;fill:rgb(98.431373%,80.392158%,34.901962%);fill-opacity:1;" d="M 9.5 31.5 C 9.5 32.605469 8.605469 33.5 7.5 33.5 C 6.394531 33.5 5.5 32.605469 5.5 31.5 C 5.5 30.394531 6.394531 29.5 7.5 29.5 C 8.605469 29.5 9.5 30.394531 9.5 31.5 Z M 9.5 31.5 "/>
<path style=" stroke:none;fill-rule:nonzero;fill:rgb(62.352943%,50.196081%,40.000001%);fill-opacity:1;" d="M 13.5 43.5 C 13.5 44.050781 13.050781 44.5 12.5 44.5 C 11.949219 44.5 11.5 44.050781 11.5 43.5 C 11.5 42.949219 11.949219 42.5 12.5 42.5 C 13.050781 42.5 13.5 42.949219 13.5 43.5 Z M 13.5 43.5 "/>
<path style=" stroke:none;fill-rule:nonzero;fill:rgb(100%,100%,100%);fill-opacity:1;" d="M 11 21.75 C 11 22.441406 10.441406 23 9.75 23 C 9.058594 23 8.5 22.441406 8.5 21.75 C 8.5 21.058594 9.058594 20.5 9.75 20.5 C 10.441406 20.5 11 21.058594 11 21.75 Z M 11 21.75 "/>
<path style=" stroke:none;fill-rule:nonzero;fill:rgb(100%,100%,100%);fill-opacity:1;" d="M 40.5 16.75 C 40.5 17.164062 40.164062 17.5 39.75 17.5 C 39.335938 17.5 39 17.164062 39 16.75 C 39 16.335938 39.335938 16 39.75 16 C 40.164062 16 40.5 16.335938 40.5 16.75 Z M 40.5 16.75 "/>
<path style=" stroke:none;fill-rule:nonzero;fill:rgb(79.607844%,78.823531%,73.725492%);fill-opacity:1;" d="M 32.289062 21.273438 C 32.289062 22.445312 32.304688 23.617188 32.285156 24.789062 C 32.246094 27.128906 31.445312 29.191406 29.988281 31.007812 C 29.230469 31.953125 28.269531 32.660156 27.316406 33.382812 C 26.128906 34.28125 24.949219 35.183594 23.765625 36.085938 C 23.496094 36.292969 23.347656 36.292969 23.085938 36.09375 C 21.527344 34.902344 19.953125 33.726562 18.410156 32.515625 C 16.46875 30.992188 15.265625 28.996094 14.746094 26.585938 C 14.542969 25.648438 14.550781 24.699219 14.550781 23.75 C 14.554688 21.628906 14.554688 19.507812 14.554688 17.386719 C 14.554688 16.964844 14.632812 16.890625 15.050781 16.882812 C 17.539062 16.820312 19.863281 16.210938 21.929688 14.773438 C 22.347656 14.480469 22.726562 14.125 23.113281 13.789062 C 23.332031 13.601562 23.523438 13.589844 23.71875 13.78125 C 25.050781 15.082031 26.65625 15.90625 28.433594 16.40625 C 29.351562 16.664062 30.285156 16.820312 31.238281 16.84375 C 31.449219 16.847656 31.664062 16.871094 31.875 16.878906 C 32.179688 16.894531 32.289062 17.003906 32.292969 17.328125 C 32.292969 18.644531 32.292969 19.957031 32.292969 21.273438 C 32.289062 21.273438 32.289062 21.273438 32.289062 21.273438 Z M 32.289062 21.273438 "/>
<path style=" stroke:none;fill-rule:nonzero;fill:rgb(27.843139%,16.862746%,16.078432%);fill-opacity:1;" d="M 23.417969 36.59375 C 23.242188 36.59375 23.066406 36.519531 22.871094 36.371094 C 22.398438 36.007812 21.921875 35.648438 21.445312 35.285156 C 20.375 34.476562 19.269531 33.636719 18.191406 32.792969 C 16.222656 31.242188 14.945312 29.179688 14.402344 26.65625 C 14.199219 25.707031 14.199219 24.746094 14.199219 23.816406 L 14.203125 17.386719 C 14.203125 16.777344 14.429688 16.546875 15.039062 16.53125 C 17.65625 16.46875 19.84375 15.800781 21.726562 14.484375 C 22.039062 14.265625 22.328125 14.015625 22.632812 13.746094 L 22.886719 13.523438 C 23.246094 13.210938 23.640625 13.214844 23.960938 13.53125 C 25.179688 14.71875 26.675781 15.546875 28.53125 16.070312 C 29.472656 16.335938 30.359375 16.472656 31.246094 16.492188 C 31.375 16.496094 31.503906 16.503906 31.632812 16.515625 C 31.71875 16.519531 31.804688 16.527344 31.894531 16.53125 C 32.390625 16.554688 32.640625 16.824219 32.640625 17.328125 L 32.644531 21.273438 C 32.644531 21.289062 32.640625 21.308594 32.640625 21.324219 L 32.640625 22.363281 C 32.644531 23.175781 32.648438 23.984375 32.636719 24.792969 C 32.597656 27.144531 31.800781 29.308594 30.261719 31.226562 C 29.515625 32.15625 28.578125 32.867188 27.671875 33.554688 L 27.527344 33.664062 C 26.691406 34.296875 25.859375 34.929688 25.023438 35.566406 L 23.976562 36.367188 C 23.777344 36.515625 23.597656 36.59375 23.417969 36.59375 Z M 23.421875 35.890625 L 23.429688 35.890625 Z M 14.910156 17.238281 C 14.90625 17.269531 14.90625 17.316406 14.90625 17.386719 L 14.902344 23.816406 C 14.898438 24.75 14.898438 25.632812 15.089844 26.511719 C 15.59375 28.867188 16.785156 30.792969 18.625 32.242188 C 19.695312 33.082031 20.800781 33.917969 21.867188 34.730469 C 22.34375 35.089844 22.820312 35.453125 23.296875 35.816406 C 23.386719 35.882812 23.417969 35.890625 23.421875 35.890625 C 23.417969 35.890625 23.453125 35.882812 23.550781 35.808594 L 24.597656 35.011719 C 25.433594 34.375 26.265625 33.738281 27.105469 33.105469 L 27.246094 32.996094 C 28.160156 32.304688 29.023438 31.652344 29.714844 30.789062 C 31.152344 28.996094 31.898438 26.976562 31.933594 24.78125 C 31.949219 23.976562 31.945312 23.171875 31.941406 22.367188 L 31.9375 21.273438 C 31.9375 21.253906 31.941406 21.238281 31.941406 21.21875 L 31.941406 17.332031 C 31.941406 17.28125 31.9375 17.253906 31.933594 17.234375 C 31.921875 17.238281 31.898438 17.230469 31.859375 17.230469 C 31.765625 17.226562 31.675781 17.21875 31.582031 17.214844 C 31.464844 17.203125 31.347656 17.195312 31.230469 17.195312 C 30.296875 17.171875 29.324219 17.019531 28.339844 16.742188 C 26.371094 16.191406 24.777344 15.304688 23.472656 14.03125 C 23.449219 14.007812 23.433594 13.996094 23.425781 13.992188 C 23.421875 13.996094 23.394531 14.011719 23.34375 14.054688 L 23.09375 14.273438 C 22.789062 14.542969 22.472656 14.820312 22.128906 15.058594 C 20.128906 16.453125 17.816406 17.164062 15.058594 17.230469 C 14.988281 17.234375 14.941406 17.238281 14.910156 17.238281 Z M 14.910156 17.238281 "/>
<path style=" stroke:none;fill-rule:nonzero;fill:rgb(46.666667%,79.607844%,82.352942%);fill-opacity:1;" d="M 30.476562 22.023438 C 30.476562 22.957031 30.488281 23.886719 30.472656 24.820312 C 30.445312 26.679688 29.804688 28.320312 28.644531 29.769531 C 28.042969 30.519531 27.277344 31.085938 26.519531 31.660156 C 25.578125 32.375 24.636719 33.09375 23.695312 33.808594 C 23.480469 33.972656 23.363281 33.972656 23.152344 33.816406 C 21.914062 32.867188 20.660156 31.933594 19.433594 30.96875 C 17.890625 29.753906 16.933594 28.167969 16.519531 26.25 C 16.359375 25.503906 16.363281 24.75 16.363281 23.996094 C 16.367188 22.308594 16.367188 20.617188 16.367188 18.929688 C 16.367188 18.597656 16.429688 18.539062 16.761719 18.53125 C 18.742188 18.480469 20.589844 17.996094 22.234375 16.851562 C 22.566406 16.617188 22.867188 16.335938 23.175781 16.070312 C 23.347656 15.921875 23.5 15.910156 23.65625 16.0625 C 24.71875 17.097656 25.996094 17.753906 27.410156 18.152344 C 28.140625 18.355469 28.882812 18.480469 29.640625 18.5 C 29.808594 18.503906 29.980469 18.519531 30.148438 18.527344 C 30.390625 18.539062 30.480469 18.628906 30.480469 18.886719 C 30.480469 19.933594 30.480469 20.976562 30.480469 22.023438 C 30.476562 22.023438 30.476562 22.023438 30.476562 22.023438 Z M 30.476562 22.023438 "/>
<path style=" stroke:none;fill-rule:nonzero;fill:rgb(27.843139%,16.862746%,16.078432%);fill-opacity:1;" d="M 23.417969 34.121094 C 23.296875 34.121094 23.175781 34.070312 23.039062 33.964844 C 22.660156 33.675781 22.28125 33.386719 21.902344 33.101562 C 21.039062 32.445312 20.171875 31.785156 19.316406 31.117188 C 17.765625 29.894531 16.761719 28.273438 16.335938 26.289062 C 16.175781 25.539062 16.175781 24.777344 16.175781 24.039062 L 16.179688 18.929688 C 16.179688 18.496094 16.320312 18.351562 16.753906 18.339844 C 18.855469 18.289062 20.613281 17.753906 22.125 16.695312 C 22.378906 16.519531 22.617188 16.308594 22.851562 16.105469 L 23.054688 15.925781 C 23.390625 15.636719 23.660156 15.800781 23.789062 15.925781 C 24.769531 16.882812 25.96875 17.550781 27.460938 17.96875 C 28.21875 18.183594 28.933594 18.292969 29.644531 18.3125 C 29.746094 18.3125 29.847656 18.320312 29.949219 18.328125 C 30.019531 18.332031 30.085938 18.335938 30.15625 18.339844 C 30.503906 18.355469 30.664062 18.53125 30.664062 18.886719 C 30.667969 19.667969 30.667969 20.453125 30.667969 21.238281 L 30.667969 22.023438 C 30.667969 22.035156 30.664062 22.046875 30.664062 22.058594 L 30.664062 22.898438 C 30.667969 23.539062 30.671875 24.179688 30.660156 24.824219 C 30.632812 26.671875 30.003906 28.378906 28.792969 29.886719 C 28.203125 30.621094 27.460938 31.183594 26.738281 31.726562 L 26.632812 31.808594 C 25.984375 32.300781 25.335938 32.792969 24.691406 33.285156 L 23.808594 33.957031 C 23.664062 34.066406 23.542969 34.121094 23.417969 34.121094 Z M 23.429688 16.140625 C 23.398438 16.140625 23.359375 16.160156 23.300781 16.210938 L 23.097656 16.386719 C 22.859375 16.597656 22.609375 16.816406 22.339844 17.003906 C 20.765625 18.105469 18.941406 18.664062 16.765625 18.714844 C 16.617188 18.71875 16.578125 18.734375 16.570312 18.742188 C 16.570312 18.746094 16.554688 18.78125 16.554688 18.929688 L 16.550781 23.996094 C 16.550781 24.757812 16.550781 25.5 16.703125 26.210938 C 17.109375 28.105469 18.070312 29.65625 19.550781 30.820312 C 20.402344 31.492188 21.265625 32.144531 22.128906 32.800781 C 22.511719 33.089844 22.890625 33.378906 23.265625 33.664062 C 23.410156 33.773438 23.433594 33.773438 23.582031 33.660156 L 24.460938 32.988281 C 25.109375 32.496094 25.757812 32 26.40625 31.507812 L 26.515625 31.429688 C 27.214844 30.898438 27.941406 30.347656 28.5 29.652344 C 29.65625 28.210938 30.257812 26.582031 30.285156 24.816406 C 30.296875 24.179688 30.292969 23.539062 30.292969 22.898438 L 30.289062 22.023438 C 30.289062 22.011719 30.289062 21.996094 30.292969 21.988281 L 30.292969 21.238281 C 30.292969 20.453125 30.292969 19.671875 30.292969 18.886719 C 30.289062 18.722656 30.277344 18.722656 30.140625 18.714844 C 30.066406 18.710938 29.996094 18.707031 29.921875 18.703125 C 29.828125 18.695312 29.730469 18.6875 29.636719 18.6875 C 28.890625 18.667969 28.148438 18.550781 27.359375 18.332031 C 25.808594 17.894531 24.554688 17.195312 23.527344 16.195312 C 23.492188 16.164062 23.464844 16.140625 23.429688 16.140625 Z M 23.429688 16.140625 "/>
<path style=" stroke:none;fill-rule:nonzero;fill:rgb(0%,64.705884%,64.705884%);fill-opacity:1;" d="M 22.1875 17.109375 L 23.421875 18.316406 L 23.421875 16.152344 C 23.359375 16.164062 23.210938 16.285156 23.148438 16.339844 C 22.835938 16.628906 22.515625 16.882812 22.1875 17.109375 Z M 22.1875 17.109375 "/>
<path style=" stroke:none;fill-rule:nonzero;fill:rgb(0%,64.705884%,64.705884%);fill-opacity:1;" d="M 18.195312 18.59375 L 23.421875 23.714844 L 23.421875 21.292969 L 20.179688 18.113281 C 19.984375 18.179688 19.785156 18.242188 19.578125 18.300781 C 19.125 18.425781 18.664062 18.527344 18.195312 18.59375 Z M 18.195312 18.59375 "/>
<path style=" stroke:none;fill-rule:nonzero;fill:rgb(0%,64.705884%,64.705884%);fill-opacity:1;" d="M 20.40625 31.496094 C 21.339844 32.1875 23.261719 33.722656 23.421875 33.746094 L 23.421875 32.375 L 16.597656 25.6875 C 16.769531 27.15625 17.328125 28.472656 18.300781 29.660156 C 18.898438 30.390625 19.65625 30.9375 20.40625 31.496094 Z M 20.40625 31.496094 "/>
<path style=" stroke:none;fill-rule:nonzero;fill:rgb(0%,64.705884%,64.705884%);fill-opacity:1;" d="M 16.546875 22.179688 C 16.546875 22.246094 16.546875 22.308594 16.546875 22.371094 L 23.421875 29.113281 L 23.421875 26.6875 L 16.546875 19.949219 C 16.546875 20.695312 16.546875 21.449219 16.546875 22.179688 Z M 16.546875 22.179688 "/>
<path style=" stroke:none;fill-rule:nonzero;fill:rgb(27.843139%,16.862746%,16.078432%);fill-opacity:1;" d="M 23.421875 33.847656 C 23.351562 33.847656 23.296875 33.789062 23.296875 33.722656 L 23.296875 15.953125 C 23.296875 15.882812 23.351562 15.828125 23.421875 15.828125 C 23.488281 15.828125 23.546875 15.882812 23.546875 15.953125 L 23.546875 33.722656 C 23.546875 33.789062 23.488281 33.847656 23.421875 33.847656 Z M 23.421875 33.847656 "/>
<path style=" stroke:none;fill-rule:nonzero;fill:rgb(73.725492%,73.725492%,88.627452%);fill-opacity:1;" d="M 35.050781 30.714844 C 35.035156 29.894531 35.476562 29.378906 36.21875 29.089844 C 36.175781 28.640625 35.652344 27.386719 35.390625 27.085938 C 34.679688 27.417969 34.003906 27.367188 33.433594 26.808594 C 32.859375 26.238281 32.8125 25.554688 33.148438 24.828125 C 32.523438 24.441406 31.851562 24.164062 31.132812 23.996094 C 30.890625 24.703125 30.421875 25.144531 29.683594 25.199219 C 28.808594 25.265625 28.242188 24.8125 27.941406 24.003906 C 27.222656 24.179688 26.554688 24.457031 25.933594 24.847656 C 26.277344 25.566406 26.230469 26.242188 25.671875 26.8125 C 25.101562 27.390625 24.421875 27.445312 23.691406 27.109375 C 23.3125 27.734375 23.039062 28.402344 22.875 29.121094 C 23.601562 29.386719 24.042969 29.886719 24.0625 30.664062 C 24.082031 31.472656 23.644531 32 22.894531 32.292969 C 23.070312 33.003906 23.351562 33.664062 23.738281 34.285156 C 24.445312 33.96875 25.105469 34.023438 25.664062 34.566406 C 26.234375 35.117188 26.300781 35.785156 25.988281 36.507812 C 26.613281 36.890625 27.28125 37.160156 27.992188 37.324219 C 28.003906 37.304688 28.011719 37.292969 28.015625 37.277344 C 28.273438 36.605469 28.859375 36.175781 29.53125 36.167969 C 30.246094 36.160156 30.839844 36.558594 31.113281 37.242188 C 31.140625 37.316406 31.175781 37.3125 31.242188 37.296875 C 31.886719 37.132812 32.492188 36.882812 33.066406 36.542969 C 33.097656 36.523438 33.125 36.503906 33.152344 36.488281 C 32.859375 35.832031 32.886719 35.210938 33.351562 34.667969 C 33.910156 34.019531 34.609375 33.925781 35.390625 34.257812 C 35.777344 33.632812 36.054688 32.96875 36.222656 32.261719 C 35.503906 31.984375 35.066406 31.492188 35.050781 30.714844 Z M 29.546875 31.832031 C 28.898438 31.828125 28.371094 31.304688 28.375 30.65625 C 28.378906 30.003906 28.90625 29.484375 29.5625 29.492188 C 30.21875 29.496094 30.738281 30.039062 30.71875 30.695312 C 30.703125 31.308594 30.207031 31.828125 29.546875 31.832031 Z M 29.546875 31.832031 "/>
<path style=" stroke:none;fill-rule:nonzero;fill:rgb(27.843139%,16.862746%,16.078432%);fill-opacity:1;" d="M 27.984375 37.574219 C 27.96875 37.574219 27.953125 37.574219 27.9375 37.570312 C 27.203125 37.402344 26.503906 37.117188 25.859375 36.722656 C 25.75 36.65625 25.707031 36.523438 25.757812 36.410156 C 26.046875 35.746094 25.960938 35.203125 25.492188 34.746094 C 25.03125 34.296875 24.492188 34.222656 23.839844 34.515625 C 23.726562 34.566406 23.59375 34.523438 23.527344 34.417969 C 23.121094 33.773438 22.828125 33.078125 22.652344 32.351562 C 22.625 32.230469 22.6875 32.105469 22.804688 32.058594 C 23.5 31.789062 23.828125 31.335938 23.8125 30.671875 C 23.796875 30.035156 23.460938 29.601562 22.789062 29.355469 C 22.671875 29.3125 22.601562 29.1875 22.628906 29.066406 C 22.800781 28.328125 23.085938 27.625 23.476562 26.976562 C 23.542969 26.871094 23.679688 26.828125 23.796875 26.882812 C 24.472656 27.191406 25.023438 27.109375 25.492188 26.636719 C 25.953125 26.167969 26.023438 25.617188 25.707031 24.953125 C 25.652344 24.839844 25.695312 24.703125 25.800781 24.636719 C 26.433594 24.238281 27.132812 23.945312 27.882812 23.761719 C 28.007812 23.734375 28.132812 23.800781 28.175781 23.917969 C 28.453125 24.667969 28.9375 25.011719 29.664062 24.953125 C 30.269531 24.90625 30.675781 24.570312 30.898438 23.917969 C 30.941406 23.796875 31.066406 23.726562 31.191406 23.753906 C 31.925781 23.925781 32.628906 24.214844 33.28125 24.617188 C 33.386719 24.683594 33.429688 24.820312 33.375 24.933594 C 33.066406 25.609375 33.140625 26.164062 33.613281 26.632812 C 34.082031 27.09375 34.628906 27.167969 35.285156 26.859375 C 35.386719 26.8125 35.507812 26.839844 35.578125 26.921875 C 35.878906 27.261719 36.421875 28.5625 36.46875 29.066406 C 36.480469 29.179688 36.417969 29.285156 36.3125 29.324219 C 35.621094 29.59375 35.289062 30.046875 35.304688 30.710938 C 35.316406 31.34375 35.648438 31.773438 36.3125 32.027344 C 36.429688 32.074219 36.496094 32.199219 36.46875 32.320312 C 36.296875 33.046875 36.003906 33.742188 35.605469 34.390625 C 35.542969 34.496094 35.410156 34.539062 35.296875 34.488281 C 34.578125 34.183594 34.003906 34.296875 33.542969 34.832031 C 33.164062 35.273438 33.113281 35.78125 33.382812 36.386719 C 33.429688 36.5 33.390625 36.632812 33.289062 36.699219 C 33.242188 36.730469 33.21875 36.746094 33.195312 36.757812 C 32.605469 37.109375 31.96875 37.375 31.304688 37.539062 C 31.035156 37.609375 30.925781 37.441406 30.882812 37.335938 C 30.652344 36.761719 30.15625 36.421875 29.554688 36.421875 C 29.546875 36.421875 29.539062 36.421875 29.535156 36.421875 C 28.964844 36.425781 28.472656 36.789062 28.253906 37.367188 C 28.246094 37.378906 28.230469 37.417969 28.222656 37.425781 C 28.175781 37.511719 28.078125 37.574219 27.984375 37.574219 Z M 26.296875 36.402344 C 26.789062 36.679688 27.308594 36.890625 27.847656 37.035156 C 28.183594 36.351562 28.820312 35.929688 29.527344 35.917969 C 29.535156 35.917969 29.542969 35.917969 29.554688 35.917969 C 30.320312 35.917969 30.960938 36.328125 31.292969 37.027344 C 31.839844 36.875 32.355469 36.660156 32.839844 36.382812 C 32.59375 35.683594 32.703125 35.039062 33.160156 34.507812 C 33.722656 33.855469 34.453125 33.664062 35.285156 33.949219 C 35.566406 33.460938 35.78125 32.941406 35.929688 32.40625 C 35.207031 32.0625 34.820312 31.484375 34.800781 30.71875 C 34.785156 29.910156 35.175781 29.296875 35.9375 28.9375 C 35.832031 28.511719 35.519531 27.75 35.304688 27.394531 C 34.53125 27.6875 33.828125 27.546875 33.257812 26.984375 C 32.6875 26.421875 32.542969 25.714844 32.835938 24.933594 C 32.34375 24.652344 31.824219 24.4375 31.285156 24.292969 C 30.976562 25 30.433594 25.398438 29.699219 25.449219 C 28.828125 25.515625 28.167969 25.117188 27.792969 24.300781 C 27.246094 24.453125 26.726562 24.671875 26.25 24.949219 C 26.542969 25.71875 26.40625 26.421875 25.847656 26.988281 C 25.28125 27.5625 24.578125 27.710938 23.796875 27.421875 C 23.519531 27.910156 23.308594 28.429688 23.167969 28.972656 C 23.898438 29.308594 24.292969 29.886719 24.3125 30.660156 C 24.332031 31.464844 23.945312 32.074219 23.191406 32.4375 C 23.339844 32.972656 23.558594 33.488281 23.84375 33.976562 C 24.597656 33.707031 25.285156 33.847656 25.839844 34.386719 C 26.40625 34.9375 26.5625 35.632812 26.296875 36.402344 Z M 29.546875 32.082031 C 29.164062 32.082031 28.804688 31.933594 28.539062 31.664062 C 28.269531 31.394531 28.121094 31.035156 28.125 30.65625 C 28.128906 30.273438 28.277344 29.917969 28.546875 29.652344 C 28.820312 29.382812 29.191406 29.230469 29.566406 29.242188 C 29.949219 29.246094 30.308594 29.398438 30.574219 29.675781 C 30.839844 29.953125 30.980469 30.316406 30.96875 30.703125 C 30.949219 31.472656 30.324219 32.078125 29.546875 32.082031 Z M 29.550781 29.742188 C 29.304688 29.742188 29.074219 29.835938 28.898438 30.007812 C 28.722656 30.179688 28.625 30.410156 28.625 30.65625 C 28.625 30.902344 28.71875 31.136719 28.894531 31.308594 C 29.066406 31.484375 29.296875 31.582031 29.546875 31.582031 C 30.050781 31.578125 30.457031 31.1875 30.46875 30.691406 C 30.476562 30.441406 30.386719 30.203125 30.214844 30.023438 C 30.039062 29.84375 29.808594 29.742188 29.558594 29.742188 C 29.558594 29.742188 29.554688 29.742188 29.550781 29.742188 Z M 29.550781 29.742188 "/>
<path style=" stroke:none;fill-rule:nonzero;fill:rgb(47.058824%,47.058824%,66.666669%);fill-opacity:1;" d="M 33.792969 29.636719 C 33.203125 27.328125 30.832031 25.9375 28.503906 26.523438 C 26.171875 27.109375 24.765625 29.453125 25.359375 31.761719 C 25.949219 34.066406 28.320312 35.460938 30.648438 34.871094 C 32.980469 34.285156 34.386719 31.941406 33.792969 29.636719 Z M 30.433594 34.03125 C 28.574219 34.5 26.679688 33.386719 26.207031 31.546875 C 25.734375 29.703125 26.859375 27.832031 28.71875 27.363281 C 30.578125 26.894531 32.394531 28.0625 32.871094 29.90625 C 33.34375 31.746094 32.292969 33.5625 30.433594 34.03125 Z M 30.433594 34.03125 "/>
<path style=" stroke:none;fill-rule:nonzero;fill:rgb(27.843139%,16.862746%,16.078432%);fill-opacity:1;" d="M 29.5625 34.285156 C 27.984375 34.285156 26.542969 33.21875 26.136719 31.621094 C 25.65625 29.730469 26.800781 27.800781 28.691406 27.320312 C 29.605469 27.085938 30.558594 27.222656 31.371094 27.707031 C 32.179688 28.1875 32.757812 28.957031 32.988281 29.875 C 33.472656 31.761719 32.324219 33.691406 30.433594 34.175781 C 30.144531 34.25 29.851562 34.285156 29.5625 34.285156 Z M 30.40625 34.054688 Z M 29.570312 27.460938 C 29.296875 27.460938 29.023438 27.492188 28.753906 27.5625 C 26.996094 28.007812 25.929688 29.800781 26.378906 31.558594 C 26.824219 33.3125 28.617188 34.378906 30.375 33.933594 C 32.128906 33.484375 33.195312 31.691406 32.746094 29.9375 C 32.53125 29.085938 31.996094 28.371094 31.242188 27.921875 C 30.726562 27.617188 30.152344 27.460938 29.570312 27.460938 Z M 25.457031 29.335938 C 25.445312 29.335938 25.429688 29.335938 25.414062 29.328125 C 25.351562 29.304688 25.316406 29.234375 25.339844 29.171875 C 25.84375 27.765625 27.007812 26.710938 28.449219 26.34375 C 28.515625 26.328125 28.585938 26.367188 28.601562 26.433594 C 28.617188 26.5 28.578125 26.570312 28.511719 26.585938 C 27.148438 26.933594 26.050781 27.929688 25.574219 29.253906 C 25.554688 29.304688 25.507812 29.335938 25.457031 29.335938 Z M 25.457031 29.335938 "/>
<path style=" stroke:none;fill-rule:nonzero;fill:rgb(27.843139%,16.862746%,16.078432%);fill-opacity:1;" d="M 29.65625 35.09375 C 29.207031 35.09375 28.746094 35.027344 28.292969 34.890625 C 26.742188 34.429688 25.59375 33.269531 25.214844 31.78125 C 25.199219 31.714844 25.238281 31.648438 25.308594 31.632812 C 25.371094 31.613281 25.441406 31.652344 25.460938 31.722656 C 25.816406 33.121094 26.902344 34.214844 28.363281 34.652344 C 29.839844 35.089844 31.359375 34.761719 32.433594 33.773438 C 32.484375 33.726562 32.5625 33.730469 32.609375 33.78125 C 32.65625 33.832031 32.652344 33.910156 32.601562 33.957031 C 31.792969 34.699219 30.75 35.09375 29.65625 35.09375 Z M 29.65625 35.09375 "/>
<path style=" stroke:none;fill-rule:nonzero;fill:rgb(63.529414%,63.529414%,80.000001%);fill-opacity:1;" d="M 33.371094 32.765625 C 33.28125 32.929688 33.179688 33.089844 33.070312 33.242188 "/>
<path style=" stroke:none;fill-rule:nonzero;fill:rgb(27.843139%,16.862746%,16.078432%);fill-opacity:1;" d="M 33.070312 33.367188 C 33.042969 33.367188 33.019531 33.359375 32.996094 33.34375 C 32.941406 33.300781 32.929688 33.222656 32.96875 33.167969 C 33.074219 33.019531 33.171875 32.863281 33.257812 32.703125 C 33.292969 32.644531 33.371094 32.621094 33.429688 32.65625 C 33.488281 32.6875 33.511719 32.765625 33.480469 32.824219 C 33.386719 32.992188 33.285156 33.15625 33.171875 33.3125 C 33.148438 33.347656 33.109375 33.367188 33.070312 33.367188 Z M 33.070312 33.367188 "/>
<path style=" stroke:none;fill-rule:nonzero;fill:rgb(63.529414%,63.529414%,80.000001%);fill-opacity:1;" d="M 33.792969 31.644531 C 33.734375 31.90625 33.652344 32.160156 33.542969 32.40625 "/>
<path style=" stroke:none;fill-rule:nonzero;fill:rgb(27.843139%,16.862746%,16.078432%);fill-opacity:1;" d="M 33.542969 32.53125 C 33.527344 32.53125 33.511719 32.527344 33.496094 32.519531 C 33.429688 32.492188 33.402344 32.417969 33.429688 32.355469 C 33.53125 32.117188 33.613281 31.867188 33.671875 31.617188 C 33.6875 31.550781 33.757812 31.507812 33.820312 31.523438 C 33.890625 31.539062 33.929688 31.605469 33.914062 31.671875 C 33.855469 31.941406 33.769531 32.203125 33.660156 32.457031 C 33.640625 32.503906 33.59375 32.53125 33.542969 32.53125 Z M 33.769531 29.730469 C 33.710938 29.730469 33.660156 29.695312 33.648438 29.636719 C 33.296875 28.261719 32.285156 27.15625 30.941406 26.6875 C 30.875 26.664062 30.839844 26.59375 30.863281 26.53125 C 30.886719 26.464844 30.957031 26.433594 31.023438 26.453125 C 32.445312 26.949219 33.515625 28.117188 33.890625 29.574219 C 33.90625 29.644531 33.867188 29.710938 33.796875 29.726562 C 33.789062 29.730469 33.777344 29.730469 33.769531 29.730469 Z M 33.769531 29.730469 "/>
<path style=" stroke:none;fill-rule:nonzero;fill:rgb(63.529414%,63.529414%,80.000001%);fill-opacity:1;" d="M 31.097656 27.59375 L 32.253906 27.3125 "/>
<path style=" stroke:none;fill-rule:nonzero;fill:rgb(27.843139%,16.862746%,16.078432%);fill-opacity:1;" d="M 31.097656 27.65625 C 31.070312 27.65625 31.046875 27.636719 31.039062 27.605469 C 31.03125 27.574219 31.050781 27.539062 31.085938 27.53125 L 32.242188 27.25 C 32.273438 27.242188 32.308594 27.261719 32.316406 27.296875 C 32.324219 27.332031 32.304688 27.363281 32.269531 27.371094 L 31.113281 27.652344 C 31.109375 27.652344 31.105469 27.65625 31.097656 27.65625 Z M 31.097656 27.65625 "/>
<path style=" stroke:none;fill-rule:nonzero;fill:rgb(63.529414%,63.529414%,80.000001%);fill-opacity:1;" d="M 32.105469 28.257812 L 32.976562 28.113281 "/>
<path style=" stroke:none;fill-rule:nonzero;fill:rgb(27.843139%,16.862746%,16.078432%);fill-opacity:1;" d="M 32.105469 28.320312 C 32.074219 28.320312 32.050781 28.296875 32.046875 28.265625 C 32.039062 28.234375 32.0625 28.199219 32.097656 28.195312 L 32.964844 28.050781 C 33 28.042969 33.03125 28.066406 33.039062 28.101562 C 33.042969 28.136719 33.019531 28.167969 32.988281 28.175781 L 32.117188 28.316406 C 32.113281 28.316406 32.109375 28.320312 32.105469 28.320312 Z M 32.105469 28.320312 "/>
<path style=" stroke:none;fill-rule:nonzero;fill:rgb(63.529414%,63.529414%,80.000001%);fill-opacity:1;" d="M 32.671875 29.148438 L 33.550781 29.054688 "/>
<path style=" stroke:none;fill-rule:nonzero;fill:rgb(27.843139%,16.862746%,16.078432%);fill-opacity:1;" d="M 32.671875 29.210938 C 32.640625 29.210938 32.613281 29.1875 32.609375 29.15625 C 32.605469 29.121094 32.628906 29.089844 32.664062 29.085938 L 33.546875 28.992188 C 33.546875 28.992188 33.550781 28.992188 33.550781 28.992188 C 33.585938 28.992188 33.609375 29.015625 33.613281 29.046875 C 33.617188 29.082031 33.59375 29.113281 33.558594 29.117188 L 32.675781 29.210938 C 32.675781 29.210938 32.671875 29.210938 32.671875 29.210938 Z M 32.671875 29.210938 "/>
<path style=" stroke:none;fill-rule:nonzero;fill:rgb(63.529414%,63.529414%,80.000001%);fill-opacity:1;" d="M 27.898438 26.710938 L 27.984375 27.519531 "/>
<path style=" stroke:none;fill-rule:nonzero;fill:rgb(27.843139%,16.862746%,16.078432%);fill-opacity:1;" d="M 27.984375 27.582031 C 27.953125 27.582031 27.925781 27.558594 27.921875 27.527344 L 27.835938 26.71875 C 27.832031 26.683594 27.855469 26.652344 27.890625 26.648438 C 27.890625 26.648438 27.894531 26.648438 27.898438 26.648438 C 27.929688 26.648438 27.953125 26.671875 27.957031 26.703125 L 28.046875 27.511719 C 28.050781 27.546875 28.023438 27.578125 27.992188 27.582031 C 27.988281 27.582031 27.984375 27.582031 27.984375 27.582031 Z M 27.984375 27.582031 "/>
<path style=" stroke:none;fill-rule:nonzero;fill:rgb(63.529414%,63.529414%,80.000001%);fill-opacity:1;" d="M 27.039062 27.164062 L 27.304688 28.058594 "/>
<path style=" stroke:none;fill-rule:nonzero;fill:rgb(27.843139%,16.862746%,16.078432%);fill-opacity:1;" d="M 27.304688 28.121094 C 27.277344 28.121094 27.253906 28.101562 27.246094 28.074219 L 26.980469 27.183594 C 26.96875 27.148438 26.988281 27.113281 27.019531 27.105469 C 27.058594 27.097656 27.089844 27.113281 27.097656 27.148438 L 27.363281 28.039062 C 27.375 28.070312 27.355469 28.105469 27.324219 28.117188 C 27.316406 28.117188 27.3125 28.121094 27.304688 28.121094 Z M 27.304688 28.121094 "/>
<path style=" stroke:none;fill-rule:nonzero;fill:rgb(63.529414%,63.529414%,80.000001%);fill-opacity:1;" d="M 26.179688 27.953125 L 26.703125 28.730469 "/>
<path style=" stroke:none;fill-rule:nonzero;fill:rgb(27.843139%,16.862746%,16.078432%);fill-opacity:1;" d="M 26.703125 28.792969 C 26.683594 28.792969 26.664062 28.78125 26.652344 28.765625 L 26.125 27.988281 C 26.105469 27.960938 26.113281 27.921875 26.140625 27.902344 C 26.171875 27.882812 26.210938 27.890625 26.230469 27.917969 L 26.753906 28.695312 C 26.773438 28.722656 26.765625 28.761719 26.738281 28.78125 C 26.726562 28.789062 26.714844 28.792969 26.703125 28.792969 Z M 26.703125 28.792969 "/>
<path style=" stroke:none;fill-rule:nonzero;fill:rgb(63.529414%,63.529414%,80.000001%);fill-opacity:1;" d="M 25.550781 32.308594 L 26.445312 32.261719 "/>
<path style=" stroke:none;fill-rule:nonzero;fill:rgb(27.843139%,16.862746%,16.078432%);fill-opacity:1;" d="M 25.550781 32.371094 C 25.519531 32.371094 25.492188 32.34375 25.488281 32.3125 C 25.488281 32.277344 25.515625 32.246094 25.546875 32.246094 L 26.441406 32.199219 C 26.445312 32.199219 26.445312 32.199219 26.445312 32.199219 C 26.480469 32.199219 26.507812 32.222656 26.507812 32.257812 C 26.511719 32.292969 26.484375 32.320312 26.449219 32.324219 L 25.554688 32.371094 C 25.554688 32.371094 25.550781 32.371094 25.550781 32.371094 Z M 25.550781 32.371094 "/>
<path style=" stroke:none;fill-rule:nonzero;fill:rgb(63.529414%,63.529414%,80.000001%);fill-opacity:1;" d="M 26.089844 33.277344 L 26.957031 33.019531 "/>
<path style=" stroke:none;fill-rule:nonzero;fill:rgb(27.843139%,16.862746%,16.078432%);fill-opacity:1;" d="M 26.089844 33.339844 C 26.0625 33.339844 26.039062 33.324219 26.03125 33.296875 C 26.019531 33.261719 26.039062 33.226562 26.070312 33.21875 L 26.941406 32.960938 C 26.976562 32.953125 27.007812 32.96875 27.019531 33 C 27.027344 33.035156 27.007812 33.070312 26.976562 33.078125 L 26.109375 33.339844 C 26.101562 33.339844 26.097656 33.339844 26.089844 33.339844 Z M 26.089844 33.339844 "/>
<path style=" stroke:none;fill-rule:nonzero;fill:rgb(63.529414%,63.529414%,80.000001%);fill-opacity:1;" d="M 27.023438 34.089844 L 27.757812 33.714844 "/>
<path style=" stroke:none;fill-rule:nonzero;fill:rgb(27.843139%,16.862746%,16.078432%);fill-opacity:1;" d="M 27.023438 34.152344 C 27 34.152344 26.980469 34.140625 26.96875 34.117188 C 26.953125 34.089844 26.964844 34.050781 26.996094 34.035156 L 27.726562 33.65625 C 27.757812 33.644531 27.796875 33.652344 27.8125 33.683594 C 27.828125 33.714844 27.816406 33.753906 27.785156 33.769531 L 27.050781 34.144531 C 27.042969 34.148438 27.035156 34.152344 27.023438 34.152344 Z M 27.023438 34.152344 "/>
<path style=" stroke:none;fill-rule:nonzero;fill:rgb(63.529414%,63.529414%,80.000001%);fill-opacity:1;" d="M 28.21875 34.648438 L 28.761719 34.132812 "/>
<path style=" stroke:none;fill-rule:nonzero;fill:rgb(27.843139%,16.862746%,16.078432%);fill-opacity:1;" d="M 28.21875 34.710938 C 28.203125 34.710938 28.1875 34.703125 28.171875 34.691406 C 28.148438 34.667969 28.152344 34.628906 28.175781 34.601562 L 28.71875 34.085938 C 28.742188 34.0625 28.78125 34.0625 28.804688 34.089844 C 28.828125 34.113281 28.828125 34.152344 28.804688 34.175781 L 28.261719 34.695312 C 28.25 34.707031 28.234375 34.710938 28.21875 34.710938 Z M 28.21875 34.710938 "/>
<path style=" stroke:none;fill-rule:nonzero;fill:rgb(63.529414%,63.529414%,80.000001%);fill-opacity:1;" d="M 29.507812 34.960938 L 29.929688 34.179688 "/>
<path style=" stroke:none;fill-rule:nonzero;fill:rgb(27.843139%,16.862746%,16.078432%);fill-opacity:1;" d="M 29.507812 35.023438 C 29.5 35.023438 29.488281 35.023438 29.480469 35.015625 C 29.449219 35 29.4375 34.964844 29.453125 34.933594 L 29.875 34.148438 C 29.890625 34.117188 29.925781 34.109375 29.960938 34.125 C 29.988281 34.140625 30 34.175781 29.984375 34.207031 L 29.5625 34.992188 C 29.554688 35.011719 29.53125 35.023438 29.507812 35.023438 Z M 29.507812 35.023438 "/>
<path style=" stroke:none;fill-rule:nonzero;fill:rgb(63.529414%,63.529414%,80.000001%);fill-opacity:1;" d="M 30.902344 34.738281 L 30.964844 33.914062 "/>
<path style=" stroke:none;fill-rule:nonzero;fill:rgb(27.843139%,16.862746%,16.078432%);fill-opacity:1;" d="M 30.902344 34.800781 C 30.898438 34.800781 30.898438 34.800781 30.894531 34.800781 C 30.859375 34.796875 30.835938 34.765625 30.839844 34.734375 L 30.902344 33.910156 C 30.90625 33.875 30.933594 33.855469 30.972656 33.851562 C 31.007812 33.855469 31.03125 33.886719 31.027344 33.921875 L 30.964844 34.742188 C 30.960938 34.777344 30.933594 34.800781 30.902344 34.800781 Z M 30.902344 34.800781 "/>
<path style=" stroke:none;fill-rule:nonzero;fill:rgb(63.529414%,63.529414%,80.000001%);fill-opacity:1;" d="M 28.921875 26.367188 C 29.1875 26.328125 29.457031 26.316406 29.722656 26.332031 "/>
<path style=" stroke:none;fill-rule:nonzero;fill:rgb(27.843139%,16.862746%,16.078432%);fill-opacity:1;" d="M 28.921875 26.492188 C 28.863281 26.492188 28.808594 26.445312 28.800781 26.382812 C 28.789062 26.3125 28.839844 26.25 28.90625 26.242188 C 29.179688 26.203125 29.453125 26.191406 29.730469 26.207031 C 29.800781 26.210938 29.851562 26.269531 29.847656 26.335938 C 29.84375 26.40625 29.789062 26.457031 29.71875 26.457031 C 29.457031 26.441406 29.195312 26.457031 28.941406 26.488281 C 28.933594 26.492188 28.929688 26.492188 28.921875 26.492188 Z M 28.921875 26.492188 "/>
</g>
</svg>
