<svg xmlns="http://www.w3.org/2000/svg"  viewBox="0 0 100 100" width="50px" height="50px"><path fill="#f1bc19" d="M78 13A1 1 0 1 0 78 15A1 1 0 1 0 78 13Z"/><path fill="#f9dbd2" d="M50 12A38 38 0 1 0 50 88A38 38 0 1 0 50 12Z"/><path fill="#f1bc19" d="M84 12A4 4 0 1 0 84 20A4 4 0 1 0 84 12Z"/><path fill="#ee3e54" d="M14 24A2 2 0 1 0 14 28A2 2 0 1 0 14 24Z"/><path fill="#fbcd59" d="M78 75A2 2 0 1 0 78 79 2 2 0 1 0 78 75zM17 74A4 4 0 1 0 17 82 4 4 0 1 0 17 74z"/><path fill="#ee3e54" d="M24 81A2 2 0 1 0 24 85A2 2 0 1 0 24 81Z"/><path fill="#fff" d="M66.5 76A2.5 2.5 0 1 0 66.5 81 2.5 2.5 0 1 0 66.5 76zM16 47A1 1 0 1 0 16 49 1 1 0 1 0 16 47z"/><path fill="#f1bc19" d="M86 30A1 1 0 1 0 86 32A1 1 0 1 0 86 30Z"/><path fill="#fff" d="M80 64A2 2 0 1 0 80 68A2 2 0 1 0 80 64Z"/><path fill="#fff6ae" d="M59.5,71.3c-1.5-0.6-11.3-4.7-19.4-12.8C31.9,50.2,27.8,40.5,27.2,39c0.6-2.4,2.2-8.2,3.5-9.5l1.8-1.8 c0.7-0.7,1.6-1,2.5-1s1.8,0.4,2.5,1l5.6,5.6c1.2,1.2,1.2,3.2,0,4.4l-6.7,6.7l0.2,0.4c0.1,0.2,2.7,5.7,6.9,10 c4.3,4.3,9.8,6.8,10,6.9l0.4,0.2l6.7-6.7c0.6-0.6,1.4-0.9,2.2-0.9c0.8,0,1.6,0.3,2.2,0.9l5.6,5.6c0.7,0.7,1,1.6,1,2.5 c0,1-0.4,1.8-1,2.5L69,67.7C67.7,69,61.9,70.7,59.5,71.3z"/><path fill="#472b29" d="M35.1,27.4c0.8,0,1.5,0.3,2,0.8l5.6,5.6c0.5,0.5,0.7,1.1,0.7,1.7s-0.3,1.3-0.7,1.7l-6.3,6.3l-0.7,0.7l0.4,0.9 c0.1,0.2,2.7,5.8,7.1,10.2s10,7,10.2,7.1l0.9,0.4l0.7-0.7l6.3-6.3c0.5-0.5,1.1-0.7,1.7-0.7s1.3,0.3,1.7,0.7l5.6,5.6 c1.1,1.1,1.1,2.9,0,4.1l-1.8,1.8c-1,1-5.7,2.5-8.9,3.3c-2-0.8-11.2-4.8-19-12.6c-7.8-7.8-11.8-17-12.6-19c0.8-3.3,2.3-7.9,3.3-8.9 l1.8-1.8C33.6,27.7,34.3,27.4,35.1,27.4 M35.1,26c-1.1,0-2.2,0.4-3,1.2L30.3,29c-1.8,1.8-3.8,10-3.8,10s4,10.8,13.1,19.9 C48.7,68,59.5,72,59.5,72s8.2-2,10-3.8l1.8-1.8c1.7-1.7,1.7-4.4,0-6l-5.6-5.6c-0.7-0.7-1.7-1.1-2.7-1.1s-2,0.4-2.7,1.1l-6.3,6.3 c0,0-5.6-2.6-9.8-6.8c-4.2-4.2-6.8-9.8-6.8-9.8l6.3-6.3c1.5-1.5,1.5-3.9,0-5.4l-5.6-5.6C37.2,26.4,36.2,26,35.1,26L35.1,26z"/><path fill="#472b29" d="M42.5 39c-.1 0-.3 0-.4-.1L37.3 34c-.2-.2-.2-.5 0-.7s.5-.2.7 0l4.9 4.9c.2.2.2.5 0 .7C42.8 39 42.6 39 42.5 39zM35.9 32.4c-.1 0-.3 0-.4-.1l-1.4-1.4c-.2-.2-.2-.5 0-.7s.5-.2.7 0l1.4 1.4c.2.2.2.5 0 .7C36.1 32.3 36 32.4 35.9 32.4zM70.5 67c-.1 0-.3 0-.4-.1L65.3 62c-.2-.2-.2-.5 0-.7s.5-.2.7 0l4.9 4.9c.2.2.2.5 0 .7C70.8 67 70.6 67 70.5 67zM63.9 60.4c-.1 0-.3 0-.4-.1l-1.4-1.4c-.2-.2-.2-.5 0-.7s.5-.2.7 0l1.4 1.4c.2.2.2.5 0 .7C64.1 60.3 64 60.4 63.9 60.4zM40.7 23.8c-.1 0-.1 0-.2 0-.3-.1-.4-.4-.3-.7l1.7-3.9c.1-.3.4-.4.7-.3.3.1.4.4.3.7l-1.7 3.9C41.1 23.7 40.9 23.8 40.7 23.8zM47.3 31c-.2 0-.4-.1-.5-.3-.1-.3 0-.5.3-.7l3.9-1.6c.3-.1.5 0 .7.3.1.3 0 .5-.3.7L47.5 31C47.4 31 47.4 31 47.3 31z"/><g><path fill="#472b29" d="M43.8,27.3c-0.1,0-0.3,0-0.4-0.1c-0.2-0.2-0.2-0.5,0-0.7l4.7-4.7c0.2-0.2,0.5-0.2,0.7,0s0.2,0.5,0,0.7 l-4.7,4.7C44.1,27.2,43.9,27.3,43.8,27.3z"/></g></svg>